<svg xmlns="http://www.w3.org/2000/svg" width="495" height="195" viewBox="0 0 495 195" role="img" aria-labelledby="title desc">
  <title id="title">Pesanth's GitHub snapshot</title>
  <desc id="desc">3,013 contributions, 22 public repositories, 71 public commits, and 3 pull requests in the twelve months ending July 23, 2026.</desc>
  <rect x="0.5" y="0.5" width="494" height="194" rx="12" fill="#0d1117" stroke="#30363d"/>
  <defs>
    <linearGradient id="accent" x1="0" y1="0" x2="1" y2="0">
      <stop offset="0" stop-color="#7c3aed"/>
      <stop offset="0.5" stop-color="#ec4899"/>
      <stop offset="1" stop-color="#06b6d4"/>
    </linearGradient>
  </defs>
  <rect x="22" y="22" width="451" height="4" rx="2" fill="url(#accent)"/>
  <g font-family="Segoe UI, Ubuntu, Arial, sans-serif">
    <text x="22" y="53" fill="#f0f6fc" font-size="18" font-weight="700">GitHub snapshot</text>
    <text x="22" y="72" fill="#8b949e" font-size="11">12 months ending 2026-07-23</text>

    <g transform="translate(22 91)">
      <rect width="215" height="37" rx="8" fill="#161b22" stroke="#30363d"/>
      <circle cx="18" cy="18.5" r="5" fill="#a78bfa"/>
      <text x="32" y="16" fill="#8b949e" font-size="10">CONTRIBUTIONS</text>
      <text x="32" y="30" fill="#f0f6fc" font-size="14" font-weight="700">3,013</text>
    </g>
    <g transform="translate(258 91)">
      <rect width="215" height="37" rx="8" fill="#161b22" stroke="#30363d"/>
      <circle cx="18" cy="18.5" r="5" fill="#22d3ee"/>
      <text x="32" y="16" fill="#8b949e" font-size="10">PUBLIC REPOSITORIES</text>
      <text x="32" y="30" fill="#f0f6fc" font-size="14" font-weight="700">22</text>
    </g>
    <g transform="translate(22 140)">
      <rect width="215" height="37" rx="8" fill="#161b22" stroke="#30363d"/>
      <circle cx="18" cy="18.5" r="5" fill="#f472b6"/>
      <text x="32" y="16" fill="#8b949e" font-size="10">PUBLIC COMMITS</text>
      <text x="32" y="30" fill="#f0f6fc" font-size="14" font-weight="700">71</text>
    </g>
    <g transform="translate(258 140)">
      <rect width="215" height="37" rx="8" fill="#161b22" stroke="#30363d"/>
      <circle cx="18" cy="18.5" r="5" fill="#34d399"/>
      <text x="32" y="16" fill="#8b949e" font-size="10">PULL REQUESTS</text>
      <text x="32" y="30" fill="#f0f6fc" font-size="14" font-weight="700">3</text>
    </g>
  </g>
</svg>
